Chef Academy S01E07 PDTV XviD-MOMENTUM [Dodecahedron]

Episode 7: Meat your maker
 
It's Meat Week at the Novelli Academy. With only two weeks to go until graduation, Chef Novelli decides to put the students to their hardest test to date.

--

   General

      Format : AVI
      Format/Info : Audio Video Interleave
      File size : 349 MiB
      Duration : 44mn 30s
      Overall bit rate : 1 096 Kbps
      Writing application : VirtualDubMod 1.5.10.2 (build 2540/release)
      Writing library : VirtualDubMod build 2540/release

   Video

      Format : MPEG-4 Visual
      Format profile : Streaming Video@L1
      Format settings, BVOP : Yes
      Format settings, QPel : No
      Format settings, GMC : No warppoints
      Format settings, Matrix : Default
      Muxing mode : Packed bitstream
      Codec ID : XVID
      Codec ID/Hint : XviD
      Duration : 44mn 30s
      Bit rate : 960 Kbps
      Width : 512 pixels
      Height : 384 pixels
      Display aspect ratio : 4/3
      Frame rate : 29.970 fps
      Resolution : 24 bits
      Colorimetry : 4:2:0
      Scan type : Progressive
      Bits/(Pixel*Frame) : 0.163
      Stream size : 306 MiB (88%)
      Writing library : XviD 1.1.2 (UTC 2006-11-01)

   Audio

      Format : MPEG Audio
      Format version : Version 1
      Format profile : Layer 3
      Codec ID : 55
      Codec ID/Hint : MP3
      Duration : 44mn 30s
      Bit rate mode : Variable
      Bit rate : 122 Kbps
      Minimum bit rate : 128 Kbps
      Channel(s) : 2 channels
      Sampling rate : 48.0 KHz
      Resolution : 16 bits
      Stream size : 38.7 MiB (11%)
      Alignment : Aligned on interleaves
      Interleave, duration : 24 ms (0.72 video frame)
      Interleave, preload duration : 526 ms
      Writing library : LAME3.98r
      Encoding settings : ABR